<svg xmlns="http://www.w3.org/2000/svg" xmlns:xlink="http://www.w3.org/1999/xlink" width="180" height="97" viewBox="0 0 180 97">
  <defs>
    <clipPath id="clip-Artboard_3">
      <rect width="180" height="97"/>
    </clipPath>
  </defs>
  <g id="Artboard_3" data-name="Artboard – 3" clip-path="url(#clip-Artboard_3)">
    <g id="Group_9642" data-name="Group 9642" transform="translate(1.345 -3.813)">
      <path id="Path_16090" data-name="Path 16090" d="M47.51,44.543h6.179l6.468,23.445,6.294-23.445H78.866v32.4H71.706L71.59,51.877l-1.039.52-6.7,23.1-6.756.058Z" transform="translate(2.109 1.932)" fill="#fff" fill-rule="evenodd"/>
      <path id="Path_16091" data-name="Path 16091" d="M99.982,44.544h-13.8L78.1,76.939H85.43l1.386-5.832H99.347l1.5,5.832h7.277ZM88.26,65.39l3.58-15.478H94.38L97.96,65.39Z" transform="translate(3.688 1.932)" fill="#fff" fill-rule="evenodd"/>
      <path id="Path_16092" data-name="Path 16092" d="M112.005,76.939V50.375h-9.528V44.543h49.085V50.2L136.605,70.414v.808l14.956-.058v5.775H127.828V71.973l.693-1.732,14.09-19L142.6,50.2l-23.258.18V76.939Z" transform="translate(4.946 1.932)" fill="#fff" fill-rule="evenodd"/>
      <path id="Path_16093" data-name="Path 16093" d="M6.655,42.677h7.313V69.7h33.11l2.541,7.623H6.655Z" transform="translate(0 1.836)" fill="#fff"/>
      <g id="Group_9641" data-name="Group 9641" transform="translate(7.302 85.531)">
        <path id="Path_16094" data-name="Path 16094" d="M7.609,90.6a4.757,4.757,0,0,0,2.4.677c1.37,0,2.171-.724,2.171-1.771,0-.97-.553-1.525-1.955-2.063-1.694-.6-2.742-1.479-2.742-2.941,0-1.617,1.34-2.818,3.358-2.818a4.72,4.72,0,0,1,2.295.508l-.37,1.094A4.128,4.128,0,0,0,10.8,82.79c-1.417,0-1.956.848-1.956,1.555,0,.971.631,1.448,2.063,2,1.756.677,2.649,1.525,2.649,3.05,0,1.6-1.185,2.987-3.634,2.987a5.369,5.369,0,0,1-2.649-.661Z" transform="translate(-7.27 -81.682)" fill="#fff"/>
        <path id="Path_16095" data-name="Path 16095" d="M25.25,86.934c0,3.572-2.172,5.466-4.82,5.466-2.742,0-4.666-2.125-4.666-5.266,0-3.3,2.048-5.452,4.82-5.452C23.418,81.682,25.25,83.854,25.25,86.934ZM17.2,87.1c0,2.217,1.2,4.2,3.312,4.2,2.125,0,3.326-1.956,3.326-4.313,0-2.063-1.078-4.219-3.312-4.219C18.3,82.776,17.2,84.823,17.2,87.1Z" transform="translate(-6.832 -81.682)" fill="#fff"/>
        <path id="Path_16096" data-name="Path 16096" d="M27.8,81.843h1.34V91.1h4.436v1.124H27.8Z" transform="translate(-6.21 -81.674)" fill="#fff"/>
        <path id="Path_16097" data-name="Path 16097" d="M36.887,81.843v6.145c0,2.325,1.032,3.312,2.418,3.312,1.541,0,2.526-1.017,2.526-3.312V81.843h1.354V87.9c0,3.188-1.678,4.5-3.927,4.5-2.124,0-3.727-1.217-3.727-4.435V81.843Z" transform="translate(-5.811 -81.674)" fill="#fff"/>
        <path id="Path_16098" data-name="Path 16098" d="M48.411,82.983H45.255v-1.14h7.684v1.14H49.766v9.24H48.411Z" transform="translate(-5.309 -81.674)" fill="#fff"/>
        <path id="Path_16099" data-name="Path 16099" d="M56.362,81.843V92.222H55.021V81.843Z" transform="translate(-4.805 -81.674)" fill="#fff"/>
        <path id="Path_16100" data-name="Path 16100" d="M68.784,86.934c0,3.572-2.171,5.466-4.82,5.466-2.742,0-4.666-2.125-4.666-5.266,0-3.3,2.047-5.452,4.82-5.452C66.952,81.682,68.784,83.854,68.784,86.934ZM60.73,87.1c0,2.217,1.2,4.2,3.311,4.2,2.125,0,3.326-1.956,3.326-4.313,0-2.063-1.078-4.219-3.312-4.219C61.839,82.776,60.73,84.823,60.73,87.1Z" transform="translate(-4.584 -81.682)" fill="#fff"/>
        <path id="Path_16101" data-name="Path 16101" d="M71.334,92.222V81.843H72.8l3.327,5.252a29.261,29.261,0,0,1,1.862,3.373l.032-.016c-.123-1.386-.154-2.649-.154-4.265V81.843h1.262V92.222H77.771l-3.3-5.267a32.985,32.985,0,0,1-1.94-3.465l-.045.016c.077,1.308.107,2.556.107,4.281v4.435Z" transform="translate(-3.963 -81.674)" fill="#fff"/>
        <path id="Path_16102" data-name="Path 16102" d="M82.173,90.6a4.749,4.749,0,0,0,2.4.677c1.371,0,2.172-.724,2.172-1.771,0-.97-.554-1.525-1.956-2.063-1.694-.6-2.742-1.479-2.742-2.941,0-1.617,1.34-2.818,3.358-2.818a4.72,4.72,0,0,1,2.295.508l-.37,1.094a4.128,4.128,0,0,0-1.971-.493c-1.417,0-1.956.848-1.956,1.555,0,.971.631,1.448,2.064,2,1.755.677,2.648,1.525,2.648,3.05,0,1.6-1.185,2.987-3.634,2.987a5.373,5.373,0,0,1-2.649-.661Z" transform="translate(-3.421 -81.682)" fill="#fff"/>
        <path id="Path_16103" data-name="Path 16103" d="M95.378,81.97a15.609,15.609,0,0,1,2.572-.2,4.264,4.264,0,0,1,2.91.862,2.79,2.79,0,0,1,.909,2.172,3.052,3.052,0,0,1-.8,2.217,4.3,4.3,0,0,1-3.173,1.14,4.627,4.627,0,0,1-1.078-.093v4.158h-1.34Zm1.34,5.006a4.51,4.51,0,0,0,1.108.107c1.617,0,2.6-.786,2.6-2.218,0-1.37-.971-2.033-2.449-2.033a5.6,5.6,0,0,0-1.263.108Z" transform="translate(-2.722 -81.677)" fill="#fff"/>
        <path id="Path_16104" data-name="Path 16104" d="M106.863,92.222l-3.387-10.379h1.447l1.617,5.113c.446,1.4.832,2.664,1.108,3.88h.032c.292-1.2.724-2.51,1.185-3.865l1.756-5.129h1.431l-3.711,10.379Z" transform="translate(-2.304 -81.674)" fill="#fff"/>
        <path id="Path_16105" data-name="Path 16105" d="M116.576,82.983h-3.157v-1.14H121.1v1.14h-3.172v9.24h-1.356Z" transform="translate(-1.791 -81.674)" fill="#fff"/>
        <path id="Path_16106" data-name="Path 16106" d="M127.651,81.843h1.341V91.1h4.435v1.124h-5.775Z" transform="translate(-1.056 -81.674)" fill="#fff"/>
        <path id="Path_16107" data-name="Path 16107" d="M136.666,82.983h-3.157v-1.14h7.684v1.14h-3.172v9.24h-1.355Z" transform="translate(-0.754 -81.674)" fill="#fff"/>
        <path id="Path_16108" data-name="Path 16108" d="M143.276,81.986a19.2,19.2,0,0,1,2.849-.216,5.949,5.949,0,0,1,4.2,1.294,4.784,4.784,0,0,1,1.463,3.727,5.49,5.49,0,0,1-1.494,4.035,6.4,6.4,0,0,1-4.589,1.493,21.662,21.662,0,0,1-2.432-.123Zm1.34,9.177a8.384,8.384,0,0,0,1.354.078c2.865,0,4.42-1.6,4.42-4.4.016-2.449-1.37-4-4.2-4a7.611,7.611,0,0,0-1.57.139Z" transform="translate(-0.25 -81.677)" fill="#fff"/>
      </g>
      <rect id="Rectangle_45" data-name="Rectangle 45" width="7.286" height="20.86" transform="translate(6.655 23.638)" fill="#5b8674"/>
      <path id="Path_16109" data-name="Path 16109" d="M6.655,23.746V7.111H78.928V23.638h-6.9l-.16-9.146-57.926-.2v9.458Z" transform="translate(0 0)" fill="#48ab6a" fill-rule="evenodd"/>
      <rect id="Rectangle_46" data-name="Rectangle 46" width="6.912" height="12.837" transform="translate(72.015 23.424)" fill="#5b8674"/>
    </g>
  </g>
</svg>
